<svg width="24" height="24" viewBox="0 0 24 24" fill="none" xmlns="http://www.w3.org/2000/svg">
<path d="M14.193 20.928C14.0513 21.1783 13.8456 21.3863 13.5969 21.5308C13.3482 21.6753 13.0656 21.7509 12.778 21.75C11.773 21.75 11.005 21.37 10.496 20.702C10.019 20.074 9.83198 19.272 9.77298 18.513C9.66698 17.143 9.96098 15.605 10.177 14.645H4.92698C4.26598 14.645 3.80998 14.256 3.56298 13.763C3.33798 13.317 3.26198 12.759 3.25098 12.207C3.22998 11.083 3.48098 9.643 3.85798 8.251C4.23798 6.851 4.75998 5.438 5.31698 4.358C5.59298 3.822 5.89398 3.338 6.21098 2.975C6.49098 2.654 6.93598 2.25 7.51498 2.25H20.036C20.971 2.25 21.75 2.998 21.75 3.947V13.332C21.75 13.96 21.401 14.531 20.852 14.825M20.852 14.825C20.462 15.035 20.079 15.227 19.704 15.416C19.024 15.759 18.369 16.089 17.731 16.486C16.773 17.082 15.985 17.756 15.473 18.662L14.193 20.928" fill="black"/>
</svg>
