<svg width="24" height="24" viewBox="0 0 24 24" fill="none" xmlns="http://www.w3.org/2000/svg">
<path d="M10.46 13.895H4.92696C2.38096 13.895 5.69096 3 7.51496 3H20.036C20.568 3 21 3.424 21 3.947V13.332C20.9989 13.503 20.9517 13.6706 20.8634 13.817C20.775 13.9635 20.6488 14.0833 20.498 14.164C18.436 15.27 16.017 16.176 14.82 18.293L13.54 20.559C13.4637 20.6936 13.3528 20.8055 13.2189 20.883C13.0849 20.9605 12.9327 21.0009 12.778 21C9.59796 21 10.541 16.37 10.973 14.53C10.9903 14.4534 10.9901 14.3738 10.9724 14.2973C10.9546 14.2208 10.9197 14.1493 10.8703 14.0882C10.821 14.0271 10.7584 13.978 10.6873 13.9445C10.6162 13.911 10.5385 13.8941 10.46 13.895Z" stroke="black" stroke-width="1.5" stroke-linecap="round" stroke-linejoin="round"/>
</svg>
