<svg width="24" height="24" viewBox="0 0 24 24" fill="none" xmlns="http://www.w3.org/2000/svg">
<path d="M19 23.3L18.4 22.8C16.4 20.9 15 19.7 15 18.2C15 17 16 16 17.2 16C17.9 16 18.6 16.3 19 16.8C19.4 16.3 20.1 16 20.8 16C22 16 23 16.9 23 18.2C23 19.7 21.6 20.9 19.6 22.8L19 23.3ZM6 22C5.46957 22 4.96086 21.7893 4.58579 21.4142C4.21071 21.0391 4 20.5304 4 20V4C4 2.89 4.89 2 6 2H7V9L9.5 7.5L12 9V2H18C18.5304 2 19.0391 2.21071 19.4142 2.58579C19.7893 2.96086 20 3.46957 20 4V13.08L19 13C17.947 13.0008 16.9128 13.2785 16.0011 13.8052C15.0893 14.3319 14.3321 15.0891 13.8053 16.0008C13.2785 16.9126 13.0007 17.9468 12.9998 18.9997C12.9989 20.0527 13.2748 21.0874 13.8 22H6Z" fill="#F1C232"/>
</svg>
