<svg width="24" height="24" viewBox="0 0 24 24" fill="none" xmlns="http://www.w3.org/2000/svg">
<g clip-path="url(#clip0_275_308)">
<path d="M8.99997 19.3001C8.71868 19.5813 8.33722 19.7393 7.93947 19.7393C7.54172 19.7393 7.16026 19.5813 6.87897 19.3001L1.49997 13.9201C1.21876 13.6388 1.06079 13.2574 1.06079 12.8596C1.06079 12.4619 1.21876 12.0804 1.49997 11.7991L12 1.30011C12.1392 1.16066 12.3046 1.05003 12.4867 0.974528C12.6687 0.89903 12.8639 0.860149 13.061 0.860107H18.439C18.8368 0.860107 19.2183 1.01814 19.4996 1.29945C19.7809 1.58075 19.939 1.96228 19.939 2.36011V7.73811C19.9392 7.93529 19.9005 8.13059 19.8252 8.31281C19.7499 8.49504 19.6394 8.66063 19.5 8.80011" stroke="#1e2939" stroke-width="1.5" stroke-linecap="round" stroke-linejoin="round"/>
<path d="M16.189 4.98511C16.0895 4.98511 15.9941 4.9456 15.9238 4.87527C15.8535 4.80495 15.814 4.70956 15.814 4.61011C15.814 4.51065 15.8535 4.41527 15.9238 4.34494C15.9941 4.27462 16.0895 4.23511 16.189 4.23511M16.189 4.98511C16.2884 4.98511 16.3838 4.9456 16.4541 4.87527C16.5245 4.80495 16.564 4.70956 16.564 4.61011C16.564 4.51065 16.5245 4.41527 16.4541 4.34494C16.3838 4.27462 16.2884 4.23511 16.189 4.23511" stroke="#1e2939" stroke-width="1.5"/>
<path d="M16.939 23.138L11.826 17.8C11.5331 17.5218 11.2989 17.1878 11.1372 16.8177C10.9755 16.4476 10.8895 16.0488 10.8843 15.6449C10.8791 15.241 10.9548 14.8402 11.107 14.466C11.2592 14.0919 11.4847 13.752 11.7703 13.4664C12.0559 13.1808 12.3958 12.9552 12.77 12.803C13.1442 12.6509 13.545 12.5751 13.9489 12.5803C14.3528 12.5855 14.7515 12.6715 15.1216 12.8332C15.4918 12.995 15.8258 13.2292 16.104 13.522L16.939 14.357L17.775 13.522C18.0559 13.2411 18.3893 13.0183 18.7563 12.8663C19.1234 12.7142 19.5167 12.636 19.914 12.636C20.3112 12.636 20.7046 12.7142 21.0716 12.8663C21.4386 13.0183 21.7721 13.2411 22.053 13.522C22.3339 13.8029 22.5567 14.1364 22.7087 14.5034C22.8607 14.8704 22.939 15.2638 22.939 15.661C22.939 16.0583 22.8607 16.4516 22.7087 16.8186C22.5567 17.1856 22.3339 17.5191 22.053 17.8L16.939 23.138Z" stroke="#1e2939" stroke-width="1.5" stroke-linecap="round" stroke-linejoin="round"/>
</g>
<defs>
<clipPath id="clip0_275_308">
<rect width="24" height="24" fill="white"/>
</clipPath>
</defs>
</svg>
