<svg width="24" height="24" viewBox="0 0 24 24" fill="none" xmlns="http://www.w3.org/2000/svg">
<g clip-path="url(#clip0_274_295)">
<path d="M19.11 8.41C19.7033 7.74102 20.0554 6.89253 20.11 6V2C20.11 1.46957 19.8993 0.960859 19.5242 0.585786C19.1491 0.210714 18.6404 0 18.11 0L13.83 0C12.9375 0.0545875 12.089 0.406661 11.42 1L0.590001 11.83C0.402832 12.0161 0.254338 12.2373 0.153077 12.481C0.0518167 12.7247 -0.000208482 12.9861 6.37713e-07 13.25C-0.000420824 13.7781 0.20808 14.285 0.580001 14.66L5.43 19.5C5.61575 19.686 5.83632 19.8335 6.07912 19.9341C6.32192 20.0348 6.58217 20.0866 6.845 20.0866C7.10783 20.0866 7.36809 20.0348 7.61088 19.9341C7.85368 19.8335 8.07426 19.686 8.26 19.5L9.26 18.5C9.32645 18.4289 9.37117 18.3403 9.38889 18.2446C9.40661 18.1489 9.39659 18.0502 9.36 17.96C8.98193 17.0538 8.87906 16.0563 9.06422 15.092C9.24938 14.1277 9.71436 13.2393 10.4012 12.5375C11.088 11.8358 11.9662 11.3518 12.9263 11.146C13.8864 10.9401 14.8859 11.0215 15.8 11.38C15.8902 11.4166 15.9889 11.4266 16.0846 11.4089C16.1803 11.3912 16.2689 11.3464 16.34 11.28L19.11 8.41ZM12.59 5.5C12.59 5.10444 12.7073 4.71776 12.9271 4.38886C13.1468 4.05996 13.4592 3.80362 13.8246 3.65224C14.1901 3.50087 14.5922 3.46126 14.9802 3.53843C15.3681 3.6156 15.7245 3.80608 16.0042 4.08579C16.2839 4.36549 16.4744 4.72186 16.5516 5.10982C16.6287 5.49778 16.5891 5.89991 16.4378 6.26537C16.2864 6.63082 16.03 6.94318 15.7011 7.16294C15.3722 7.3827 14.9856 7.5 14.59 7.5C14.0596 7.5 13.5509 7.28929 13.1758 6.91421C12.8007 6.53914 12.59 6.03043 12.59 5.5Z" fill="#1E2939"/>
<path d="M13.46 12.54C12.8138 12.6401 12.2081 12.9177 11.7105 13.3419C11.2129 13.7661 10.8428 14.3202 10.6417 14.9423C10.4405 15.5645 10.4161 16.2303 10.5712 16.8656C10.7263 17.5008 11.0548 18.0805 11.52 18.54L16.64 23.87C16.685 23.921 16.7404 23.9619 16.8025 23.99C16.8646 24.018 16.9319 24.0325 17 24.0325C17.0681 24.0325 17.1354 24.018 17.1975 23.99C17.2596 23.9619 17.315 23.921 17.36 23.87L22.47 18.55C22.7983 18.2217 23.0587 17.8319 23.2364 17.403C23.4141 16.974 23.5055 16.5143 23.5055 16.05C23.5055 15.5857 23.4141 15.1259 23.2364 14.697C23.0587 14.268 22.7983 13.8783 22.47 13.55C22.1417 13.2217 21.7519 12.9612 21.323 12.7836C20.894 12.6059 20.4343 12.5144 19.97 12.5144C19.5057 12.5144 19.046 12.6059 18.617 12.7836C18.1881 12.9612 17.7983 13.2217 17.47 13.55L17.17 13.86C17.1205 13.9042 17.0564 13.9287 16.99 13.9287C16.9236 13.9287 16.8595 13.9042 16.81 13.86L16.51 13.55C16.1187 13.151 15.6378 12.8512 15.1073 12.6755C14.5769 12.4998 14.0121 12.4534 13.46 12.54Z" fill="#1E2939"/>
</g>
<defs>
<clipPath id="clip0_274_295">
<rect width="24" height="24" fill="white"/>
</clipPath>
</defs>
</svg>
